<svg width="1440" height="1160" viewBox="0 0 1440 1160" version="1.1" xmlns="http://www.w3.org/2000/svg" xmlns:xlink="http://www.w3.org/1999/xlink" xmlns:figma="http://www.figma.com/figma/ns">
<title>Desktop HD 2</title>
<desc>Created using Figma</desc>
<g id="Canvas" transform="translate(-2280 -709)" figma:type="canvas">
<mask id="mask0_alpha" mask-type="alpha">
<path d="M 2280 709L 3720 709L 3720 1869L 2280 1869L 2280 709Z" fill="#FFFFFF"/>
</mask>
<g id="Desktop HD 2" style="mix-blend-mode:normal;" mask="url(#mask0_alpha)" figma:type="frame">
<path d="M 2280 709L 3720 709L 3720 1869L 2280 1869L 2280 709Z" fill="#FFFFFF"/>
<g id="design + code" style="mix-blend-mode:normal;" figma:type="frame">
<g id="Rectangle 4" style="mix-blend-mode:normal;" figma:type="rounded-rectangle">
<use xlink:href="#path0_fill" transform="translate(2280 709)" fill="#333333" style="mix-blend-mode:normal;"/>
</g>
<g id="Group" style="mix-blend-mode:normal;" figma:type="frame">
<g id="Group" style="mix-blend-mode:normal;" figma:type="frame">
<mask id="mask1_alpha" mask-type="alpha">
<g id="design + code" style="mix-blend-mode:normal;" figma:type="text">
<use xlink:href="#path1_fill" transform="translate(2448 1268)" style="mix-blend-mode:normal;"/>
</g>
</mask>
<g id="Rectangle 2" style="mix-blend-mode:normal;" mask="url(#mask1_alpha)" figma:type="rounded-rectangle">
<use xlink:href="#path2_fill" transform="translate(2448 1302)" fill="url(#paint2_linear)" style="mix-blend-mode:normal;"/>
</g>
</g>
<g id="Group" style="mix-blend-mode:normal;" figma:type="frame">
<mask id="mask2_alpha" mask-type="alpha">
<g id="Welcome to" style="mix-blend-mode:normal;" figma:type="text">
<use xlink:href="#path3_fill" transform="translate(2524 1076)" style="mix-blend-mode:normal;"/>
</g>
</mask>
<g id="Rectangle 2" style="mix-blend-mode:normal;" mask="url(#mask2_alpha)" figma:type="rounded-rectangle">
<use xlink:href="#path4_fill" transform="translate(2524 1115.5)" fill="url(#paint4_linear)" style="mix-blend-mode:normal;"/>
</g>
</g>
</g>
</g>
</g>
</g>
<defs>
<linearGradient id="paint2_linear" x1="0" y1="0" x2="1" y2="0" gradientUnits="userSpaceOnUse" gradientTransform="matrix(-1104 196 -1586.04 -5722.32 1897.02 2861.16)">
<stop offset="0" stop-color="#9B51E0"/>
<stop offset="0.349711" stop-color="#BB6BD9"/>
<stop offset="0.519376" stop-color="#56CCF2"/>
<stop offset="1" stop-color="#2D9CDB"/>
</linearGradient>
<linearGradient id="paint4_linear" x1="0" y1="0" x2="1" y2="0" gradientUnits="userSpaceOnUse" gradientTransform="matrix(-952 144.318 -1367.67 -4213.45 1635.84 2106.73)">
<stop offset="0" stop-color="#9B51E0"/>
<stop offset="0.349711" stop-color="#BB6BD9"/>
<stop offset="0.519376" stop-color="#56CCF2"/>
<stop offset="1" stop-color="#2D9CDB"/>
</linearGradient>
<path id="path0_fill" d="M 0 0L 1440 0L 1440 1160L 0 1160L 0 0Z"/>
<path id="path1_fill" d="M 77.7402 171.496L 76.9844 171.496C 70.5456 180.846 60.9154 185.521 48.0938 185.521C 36.056 185.521 26.6777 181.406 19.959 173.176C 13.2962 164.945 9.96484 153.243 9.96484 138.07C 9.96484 122.897 13.3242 111.111 20.043 102.713C 26.7617 94.3145 36.112 90.1152 48.0938 90.1152C 60.5794 90.1152 70.1536 94.6504 76.8164 103.721L 77.9082 103.721L 77.3203 97.0859L 76.9844 90.6191L 76.9844 53.1621L 90.9258 53.1621L 90.9258 183.842L 79.5879 183.842L 77.7402 171.496ZM 49.8574 173.848C 59.3756 173.848 66.2624 171.272 70.5176 166.121C 74.8288 160.914 76.9844 152.544 76.9844 141.01L 76.9844 138.07C 76.9844 125.025 74.8008 115.73 70.4336 110.188C 66.1224 104.589 59.2077 101.789 49.6895 101.789C 41.515 101.789 35.2441 104.98 30.877 111.363C 26.5658 117.69 24.4102 126.648 24.4102 138.238C 24.4102 149.996 26.5658 158.87 30.877 164.861C 35.1882 170.852 41.515 173.848 49.8574 173.848ZM 159.457 185.521C 145.852 185.521 135.102 181.378 127.207 173.092C 119.368 164.805 115.449 153.299 115.449 138.574C 115.449 123.737 119.089 111.951 126.367 103.217C 133.702 94.4824 143.528 90.1152 155.846 90.1152C 167.38 90.1152 176.506 93.9225 183.225 101.537C 189.943 109.096 193.303 119.09 193.303 131.52L 193.303 140.338L 129.895 140.338C 130.174 151.144 132.89 159.346 138.041 164.945C 143.248 170.544 150.555 173.344 159.961 173.344C 169.871 173.344 179.669 171.272 189.355 167.129L 189.355 179.559C 184.428 181.686 179.753 183.198 175.33 184.094C 170.963 185.046 165.672 185.521 159.457 185.521ZM 155.678 101.789C 148.287 101.789 142.38 104.197 137.957 109.012C 133.59 113.827 131.014 120.49 130.23 129L 178.354 129C 178.354 120.21 176.394 113.491 172.475 108.844C 168.555 104.141 162.956 101.789 155.678 101.789ZM 276.531 158.73C 276.531 167.297 273.34 173.904 266.957 178.551C 260.574 183.198 251.616 185.521 240.082 185.521C 227.876 185.521 218.358 183.59 211.527 179.727L 211.527 166.793C 215.951 169.033 220.682 170.796 225.721 172.084C 230.816 173.372 235.715 174.016 240.418 174.016C 247.697 174.016 253.296 172.868 257.215 170.572C 261.134 168.221 263.094 164.665 263.094 159.906C 263.094 156.323 261.526 153.271 258.391 150.752C 255.311 148.176 249.264 145.153 240.25 141.682C 231.684 138.49 225.581 135.719 221.941 133.367C 218.358 130.96 215.671 128.244 213.879 125.221C 212.143 122.197 211.275 118.586 211.275 114.387C 211.275 106.884 214.327 100.977 220.43 96.666C 226.533 92.2988 234.903 90.1152 245.541 90.1152C 255.451 90.1152 265.137 92.1309 274.6 96.1621L 269.645 107.5C 260.406 103.693 252.036 101.789 244.533 101.789C 237.926 101.789 232.943 102.825 229.584 104.896C 226.225 106.968 224.545 109.824 224.545 113.463C 224.545 115.926 225.161 118.026 226.393 119.762C 227.68 121.497 229.724 123.149 232.523 124.717C 235.323 126.285 240.698 128.552 248.648 131.52C 259.566 135.495 266.929 139.498 270.736 143.529C 274.6 147.561 276.531 152.628 276.531 158.73ZM 313.232 183.842L 299.291 183.842L 299.291 91.7949L 313.232 91.7949L 313.232 183.842ZM 298.115 66.8516C 298.115 63.6602 298.899 61.3366 300.467 59.8809C 302.035 58.3691 303.994 57.6133 306.346 57.6133C 308.585 57.6133 310.517 58.3691 312.141 59.8809C 313.764 61.3926 314.576 63.7161 314.576 66.8516C 314.576 69.987 313.764 72.3385 312.141 73.9062C 310.517 75.418 308.585 76.1738 306.346 76.1738C 303.994 76.1738 302.035 75.418 300.467 73.9062C 298.899 72.3385 298.115 69.987 298.115 66.8516ZM 418.129 91.7949L 418.129 100.613L 401.08 102.629C 402.648 104.589 404.048 107.164 405.279 110.355C 406.511 113.491 407.127 117.046 407.127 121.021C 407.127 130.036 404.048 137.23 397.889 142.605C 391.73 147.98 383.275 150.668 372.525 150.668C 369.782 150.668 367.206 150.444 364.799 149.996C 358.864 153.132 355.896 157.079 355.896 161.838C 355.896 164.357 356.932 166.233 359.004 167.465C 361.076 168.641 364.631 169.229 369.67 169.229L 385.963 169.229C 395.929 169.229 403.572 171.328 408.891 175.527C 414.266 179.727 416.953 185.829 416.953 193.836C 416.953 204.026 412.866 211.781 404.691 217.1C 396.517 222.475 384.591 225.162 368.914 225.162C 356.876 225.162 347.582 222.923 341.031 218.443C 334.536 213.964 331.289 207.637 331.289 199.463C 331.289 193.864 333.081 189.021 336.664 184.934C 340.247 180.846 345.286 178.075 351.781 176.619C 349.43 175.555 347.442 173.904 345.818 171.664C 344.251 169.424 343.467 166.821 343.467 163.854C 343.467 160.494 344.363 157.555 346.154 155.035C 347.946 152.516 350.773 150.08 354.637 147.729C 349.878 145.769 345.986 142.438 342.963 137.734C 339.995 133.031 338.512 127.656 338.512 121.609C 338.512 111.531 341.535 103.777 347.582 98.3457C 353.629 92.8587 362.195 90.1152 373.281 90.1152C 378.096 90.1152 382.436 90.6751 386.299 91.7949L 418.129 91.7949ZM 344.727 199.295C 344.727 204.278 346.826 208.057 351.025 210.633C 355.225 213.208 361.243 214.496 369.082 214.496C 380.784 214.496 389.434 212.732 395.033 209.205C 400.688 205.734 403.516 201.003 403.516 195.012C 403.516 190.029 401.976 186.557 398.896 184.598C 395.817 182.694 390.022 181.742 381.512 181.742L 364.799 181.742C 358.472 181.742 353.545 183.254 350.018 186.277C 346.49 189.301 344.727 193.64 344.727 199.295ZM 352.285 121.273C 352.285 127.712 354.105 132.583 357.744 135.887C 361.383 139.19 366.451 140.842 372.945 140.842C 386.551 140.842 393.354 134.235 393.354 121.021C 393.354 107.192 386.467 100.277 372.693 100.277C 366.143 100.277 361.104 102.041 357.576 105.568C 354.049 109.096 352.285 114.331 352.285 121.273ZM 500.014 183.842L 500.014 124.297C 500.014 116.794 498.306 111.195 494.891 107.5C 491.475 103.805 486.128 101.957 478.85 101.957C 469.219 101.957 462.165 104.561 457.686 109.768C 453.206 114.975 450.967 123.569 450.967 135.551L 450.967 183.842L 437.025 183.842L 437.025 91.7949L 448.363 91.7949L 450.631 104.393L 451.303 104.393C 454.158 99.8574 458.161 96.3581 463.312 93.8945C 468.464 91.375 474.202 90.1152 480.529 90.1152C 491.615 90.1152 499.958 92.8027 505.557 98.1777C 511.156 103.497 513.955 112.035 513.955 123.793L 513.955 183.842L 500.014 183.842ZM 627.418 117.41L 662.02 117.41L 662.02 129L 627.418 129L 627.418 164.777L 615.744 164.777L 615.744 129L 581.311 129L 581.311 117.41L 615.744 117.41L 615.744 81.4648L 627.418 81.4648L 627.418 117.41ZM 767.252 185.521C 753.926 185.521 743.596 181.434 736.262 173.26C 728.983 165.029 725.344 153.411 725.344 138.406C 725.344 123.009 729.039 111.111 736.43 102.713C 743.876 94.3145 754.458 90.1152 768.176 90.1152C 772.599 90.1152 777.022 90.5911 781.445 91.543C 785.868 92.4948 789.34 93.6146 791.859 94.9023L 787.576 106.744C 784.497 105.512 781.137 104.505 777.498 103.721C 773.859 102.881 770.639 102.461 767.84 102.461C 749.139 102.461 739.789 114.387 739.789 138.238C 739.789 149.548 742.057 158.227 746.592 164.273C 751.183 170.32 757.958 173.344 766.916 173.344C 774.587 173.344 782.453 171.692 790.516 168.389L 790.516 180.734C 784.357 183.926 776.602 185.521 767.252 185.521ZM 891.885 137.734C 891.885 152.74 888.105 164.469 880.547 172.924C 872.988 181.322 862.546 185.521 849.221 185.521C 840.99 185.521 833.684 183.59 827.301 179.727C 820.918 175.863 815.991 170.32 812.52 163.098C 809.048 155.875 807.312 147.421 807.312 137.734C 807.312 122.729 811.064 111.055 818.566 102.713C 826.069 94.3145 836.483 90.1152 849.809 90.1152C 862.686 90.1152 872.904 94.3984 880.463 102.965C 888.077 111.531 891.885 123.121 891.885 137.734ZM 821.758 137.734C 821.758 149.492 824.109 158.451 828.812 164.609C 833.516 170.768 840.43 173.848 849.557 173.848C 858.683 173.848 865.598 170.796 870.301 164.693C 875.06 158.535 877.439 149.548 877.439 137.734C 877.439 126.033 875.06 117.158 870.301 111.111C 865.598 105.008 858.627 101.957 849.389 101.957C 840.262 101.957 833.376 104.952 828.729 110.943C 824.081 116.934 821.758 125.865 821.758 137.734ZM 979.061 171.496L 978.305 171.496C 971.866 180.846 962.236 185.521 949.414 185.521C 937.376 185.521 927.998 181.406 921.279 173.176C 914.617 164.945 911.285 153.243 911.285 138.07C 911.285 122.897 914.645 111.111 921.363 102.713C 928.082 94.3145 937.432 90.1152 949.414 90.1152C 961.9 90.1152 971.474 94.6504 978.137 103.721L 979.229 103.721L 978.641 97.0859L 978.305 90.6191L 978.305 53.1621L 992.246 53.1621L 992.246 183.842L 980.908 183.842L 979.061 171.496ZM 951.178 173.848C 960.696 173.848 967.583 171.272 971.838 166.121C 976.149 160.914 978.305 152.544 978.305 141.01L 978.305 138.07C 978.305 125.025 976.121 115.73 971.754 110.188C 967.443 104.589 960.528 101.789 951.01 101.789C 942.835 101.789 936.564 104.98 932.197 111.363C 927.886 117.69 925.73 126.648 925.73 138.238C 925.73 149.996 927.886 158.87 932.197 164.861C 936.508 170.852 942.835 173.848 951.178 173.848ZM 1060.78 185.521C 1047.17 185.521 1036.42 181.378 1028.53 173.092C 1020.69 164.805 1016.77 153.299 1016.77 138.574C 1016.77 123.737 1020.41 111.951 1027.69 103.217C 1035.02 94.4824 1044.85 90.1152 1057.17 90.1152C 1068.7 90.1152 1077.83 93.9225 1084.54 101.537C 1091.26 109.096 1094.62 119.09 1094.62 131.52L 1094.62 140.338L 1031.21 140.338C 1031.49 151.144 1034.21 159.346 1039.36 164.945C 1044.57 170.544 1051.88 173.344 1061.28 173.344C 1071.19 173.344 1080.99 171.272 1090.68 167.129L 1090.68 179.559C 1085.75 181.686 1081.07 183.198 1076.65 184.094C 1072.28 185.046 1066.99 185.521 1060.78 185.521ZM 1057 101.789C 1049.61 101.789 1043.7 104.197 1039.28 109.012C 1034.91 113.827 1032.33 120.49 1031.55 129L 1079.67 129C 1079.67 120.21 1077.71 113.491 1073.79 108.844C 1069.88 104.141 1064.28 101.789 1057 101.789Z"/>
<path id="path2_fill" d="M 0 0L 1104 0L 1104 201L 0 201L 0 0Z"/>
<path id="path3_fill" d="M 124.357 175.609L 110.248 175.609L 85.4727 93.3887C 84.2969 89.7494 82.9811 85.1582 81.5254 79.6152C 80.0697 74.0723 79.3138 70.7409 79.2578 69.6211C 78.026 77.0117 76.0664 85.1022 73.3789 93.8926L 49.3594 175.609L 35.25 175.609L 2.58008 52.8242L 17.6973 52.8242L 37.0977 128.662C 39.7852 139.3 41.7448 148.93 42.9766 157.553C 44.4883 147.307 46.7279 137.285 49.6953 127.486L 71.6992 52.8242L 86.8164 52.8242L 109.912 128.158C 112.6 136.837 114.867 146.635 116.715 157.553C 117.779 149.602 119.794 139.916 122.762 128.494L 142.078 52.8242L 157.195 52.8242L 124.357 175.609ZM 213.213 177.289C 199.607 177.289 188.857 173.146 180.963 164.859C 173.124 156.573 169.205 145.067 169.205 130.342C 169.205 115.505 172.844 103.719 180.123 94.9844C 187.458 86.25 197.284 81.8828 209.602 81.8828C 221.135 81.8828 230.262 85.6901 236.98 93.3047C 243.699 100.863 247.059 110.857 247.059 123.287L 247.059 132.105L 183.65 132.105C 183.93 142.911 186.646 151.114 191.797 156.713C 197.004 162.312 204.311 165.111 213.717 165.111C 223.627 165.111 233.425 163.04 243.111 158.896L 243.111 171.326C 238.184 173.454 233.509 174.965 229.086 175.861C 224.719 176.813 219.428 177.289 213.213 177.289ZM 209.434 93.5566C 202.043 93.5566 196.136 95.9642 191.713 100.779C 187.346 105.594 184.77 112.257 183.986 120.768L 232.109 120.768C 232.109 111.977 230.15 105.258 226.23 100.611C 222.311 95.9082 216.712 93.5566 209.434 93.5566ZM 284.852 175.609L 270.91 175.609L 270.91 44.9297L 284.852 44.9297L 284.852 175.609ZM 351.199 177.289C 337.874 177.289 327.544 173.202 320.209 165.027C 312.93 156.797 309.291 145.179 309.291 130.174C 309.291 114.777 312.986 102.879 320.377 94.4805C 327.824 86.082 338.406 81.8828 352.123 81.8828C 356.546 81.8828 360.969 82.3587 365.393 83.3105C 369.816 84.2624 373.287 85.3822 375.807 86.6699L 371.523 98.5117C 368.444 97.2799 365.085 96.2721 361.445 95.4883C 357.806 94.6484 354.587 94.2285 351.787 94.2285C 333.087 94.2285 323.736 106.154 323.736 130.006C 323.736 141.316 326.004 149.994 330.539 156.041C 335.13 162.088 341.905 165.111 350.863 165.111C 358.534 165.111 366.4 163.46 374.463 160.156L 374.463 172.502C 368.304 175.693 360.549 177.289 351.199 177.289ZM 475.832 129.502C 475.832 144.507 472.053 156.237 464.494 164.691C 456.936 173.09 446.493 177.289 433.168 177.289C 424.938 177.289 417.631 175.357 411.248 171.494C 404.865 167.631 399.938 162.088 396.467 154.865C 392.995 147.643 391.26 139.188 391.26 129.502C 391.26 114.497 395.011 102.823 402.514 94.4805C 410.016 86.082 420.43 81.8828 433.756 81.8828C 446.633 81.8828 456.852 86.166 464.41 94.7324C 472.025 103.299 475.832 114.889 475.832 129.502ZM 405.705 129.502C 405.705 141.26 408.057 150.218 412.76 156.377C 417.463 162.536 424.378 165.615 433.504 165.615C 442.63 165.615 449.545 162.564 454.248 156.461C 459.007 150.302 461.387 141.316 461.387 129.502C 461.387 117.8 459.007 108.926 454.248 102.879C 449.545 96.776 442.574 93.7246 433.336 93.7246C 424.21 93.7246 417.323 96.7201 412.676 102.711C 408.029 108.702 405.705 117.632 405.705 129.502ZM 617.682 175.609L 617.682 115.729C 617.682 108.394 616.114 102.907 612.979 99.2676C 609.843 95.5723 604.972 93.7246 598.365 93.7246C 589.687 93.7246 583.276 96.2161 579.133 101.199C 574.99 106.182 572.918 113.853 572.918 124.211L 572.918 175.609L 558.977 175.609L 558.977 115.729C 558.977 108.394 557.409 102.907 554.273 99.2676C 551.138 95.5723 546.239 93.7246 539.576 93.7246C 530.842 93.7246 524.431 96.3561 520.344 101.619C 516.312 106.826 514.297 115.393 514.297 127.318L 514.297 175.609L 500.355 175.609L 500.355 83.5625L 511.693 83.5625L 513.961 96.1602L 514.633 96.1602C 517.264 91.681 520.96 88.1816 525.719 85.6621C 530.534 83.1426 535.909 81.8828 541.844 81.8828C 556.233 81.8828 565.639 87.0898 570.062 97.5039L 570.734 97.5039C 573.478 92.6888 577.453 88.8815 582.66 86.082C 587.867 83.2825 593.802 81.8828 600.465 81.8828C 610.879 81.8828 618.661 84.5703 623.812 89.9453C 629.02 95.2643 631.623 103.803 631.623 115.561L 631.623 175.609L 617.682 175.609ZM 699.314 177.289C 685.709 177.289 674.959 173.146 667.064 164.859C 659.226 156.573 655.307 145.067 655.307 130.342C 655.307 115.505 658.946 103.719 666.225 94.9844C 673.559 86.25 683.385 81.8828 695.703 81.8828C 707.237 81.8828 716.363 85.6901 723.082 93.3047C 729.801 100.863 733.16 110.857 733.16 123.287L 733.16 132.105L 669.752 132.105C 670.032 142.911 672.747 151.114 677.898 156.713C 683.105 162.312 690.412 165.111 699.818 165.111C 709.729 165.111 719.527 163.04 729.213 158.896L 729.213 171.326C 724.286 173.454 719.611 174.965 715.188 175.861C 710.82 176.813 705.529 177.289 699.314 177.289ZM 695.535 93.5566C 688.145 93.5566 682.238 95.9642 677.814 100.779C 673.447 105.594 670.872 112.257 670.088 120.768L 718.211 120.768C 718.211 111.977 716.251 105.258 712.332 100.611C 708.413 95.9082 702.814 93.5566 695.535 93.5566ZM 831.422 165.783C 833.885 165.783 836.265 165.615 838.561 165.279C 840.856 164.887 842.676 164.495 844.02 164.104L 844.02 174.77C 842.508 175.497 840.268 176.085 837.301 176.533C 834.389 177.037 831.758 177.289 829.406 177.289C 811.602 177.289 802.699 167.911 802.699 149.154L 802.699 94.3965L 789.514 94.3965L 789.514 87.6777L 802.699 81.8828L 808.578 62.2305L 816.641 62.2305L 816.641 83.5625L 843.348 83.5625L 843.348 94.3965L 816.641 94.3965L 816.641 148.566C 816.641 154.109 817.956 158.365 820.588 161.332C 823.219 164.299 826.831 165.783 831.422 165.783ZM 941.945 129.502C 941.945 144.507 938.166 156.237 930.607 164.691C 923.049 173.09 912.607 177.289 899.281 177.289C 891.051 177.289 883.744 175.357 877.361 171.494C 870.979 167.631 866.051 162.088 862.58 154.865C 859.109 147.643 857.373 139.188 857.373 129.502C 857.373 114.497 861.124 102.823 868.627 94.4805C 876.13 86.082 886.544 81.8828 899.869 81.8828C 912.747 81.8828 922.965 86.166 930.523 94.7324C 938.138 103.299 941.945 114.889 941.945 129.502ZM 871.818 129.502C 871.818 141.26 874.17 150.218 878.873 156.377C 883.576 162.536 890.491 165.615 899.617 165.615C 908.743 165.615 915.658 162.564 920.361 156.461C 925.12 150.302 927.5 141.316 927.5 129.502C 927.5 117.8 925.12 108.926 920.361 102.879C 915.658 96.776 908.688 93.7246 899.449 93.7246C 890.323 93.7246 883.436 96.7201 878.789 102.711C 874.142 108.702 871.818 117.632 871.818 129.502Z"/>
<path id="path4_fill" d="M 0 0L 952 0L 952 148L 0 148L 0 0Z"/>
</defs>
</svg>
